<svg xmlns="http://www.w3.org/2000/svg" width="19.8" height="19.669" viewBox="0 0 19.8 19.669">
  <path id="_14-hors-biblioth-que-1407-info" data-name="14-hors-biblioth-que-1407-info" d="M6.351,7.157A9.96,9.96,0,0,1,16.725,4.365a.811.811,0,0,1,.532.6.855.855,0,0,1-.266.8,1.088,1.088,0,0,1-.8.133A8.427,8.427,0,0,0,6.817,9.086a8,8,0,0,0,.465,9.775,8.378,8.378,0,0,0,14.762-5.852.721.721,0,0,1,.665-.864.853.853,0,0,1,.864.731A9.752,9.752,0,0,1,14.6,23.515,9.841,9.841,0,0,1,6.351,7.157Zm7.347,4.39.066,0a.813.813,0,0,1,.766.793v5.985a.924.924,0,0,1-.864.8.858.858,0,0,1-.8-.8V12.344a.825.825,0,0,1,.864-.8H13.7Zm-.033-3.06a.825.825,0,0,1,.864.8.868.868,0,0,1-.864.8.809.809,0,0,1-.8-.8A.768.768,0,0,1,13.666,8.487Z" transform="translate(-3.821 -3.892)" fill="#fff" fill-rule="evenodd"/>
</svg>
