<?xml version="1.0" encoding="utf-8"?>
<!-- Generator: Adobe Illustrator 23.0.0, SVG Export Plug-In . SVG Version: 6.00 Build 0)  -->
<svg version="1.1" id="Layer_1" xmlns="http://www.w3.org/2000/svg" xmlns:xlink="http://www.w3.org/1999/xlink" x="0px" y="0px"
	 viewBox="0 0 2079 401" enable-background="new 0 0 2079 401" xml:space="preserve">
<g>
	<path fill="#FFFFFF" d="M1038.26,196.88c12.15,11.43,23.61,22.08,34.89,32.91c2.67,2.56,5.7,2.12,8.76,2.12
		c20.22,0.03,40.44,0.02,60.66,0.02c61.52,0,123.03,0,184.55,0c1.71,0,3.42-0.02,5.13,0c7.05,0.1,7.15,0.11,7.17,6.92
		c0.05,17.94,0.02,35.88,0.02,53.83c0,2.85-0.09,5.7,0.02,8.54c0.11,2.82-0.92,4.3-3.91,4.17c-1.99-0.09-3.99,0.01-5.98,0.01
		c-90.85,0-181.7-0.19-272.55,0.2c-14.54,0.06-25.54-4.81-35.47-15.14c-26.45-27.5-53.43-54.49-80.23-81.67
		c-10.34-10.49-10.36-13.28-0.05-23.74c27.19-27.59,54.49-55.06,81.45-82.86c9.31-9.6,19.91-14.05,33.38-14.02
		c91.42,0.25,182.84,0.13,274.26,0.13c0.85,0,1.71-0.02,2.56,0c6.38,0.15,6.48,0.15,6.5,6.7c0.05,19.94,0.05,39.87,0,59.81
		c-0.02,6.84-0.11,6.93-7.11,6.94c-38.16,0.03-76.33,0.01-114.49,0.01c-44.14,0-88.29,0.13-132.43-0.14
		c-6.71-0.04-11.73,1.43-16.56,6.36C1059.28,177.72,1049.03,186.78,1038.26,196.88z"/>
	<path fill="#FFFFFF" d="M332.6,196.88c-11.66-11.03-23.08-21.7-34.33-32.56c-2.85-2.75-6.1-2.57-9.5-2.57
		c-25.92,0.01-51.84,0.01-77.76,0.01c-55.83,0-111.66,0-167.49,0c-1.71,0-3.42,0.02-5.13,0c-6.7-0.11-6.75-0.12-6.78-7.21
		c-0.04-11.39-0.01-22.79-0.01-34.18c0-8.55-0.06-17.09,0.02-25.64c0.06-6.32,0.13-6.32,6.72-6.43c1.14-0.02,2.28,0,3.42,0
		c90.58,0,181.16,0.15,271.74-0.16c14.39-0.05,25.61,4.47,35.61,14.88c25.45,26.5,51.52,52.4,77.31,78.57
		c2.99,3.04,5.99,6.12,8.59,9.49c3.2,4.15,3.12,7.45,0.05,11.72c-1.49,2.07-3.31,3.92-5.1,5.74c-27.79,28.2-55.68,56.3-83.34,84.62
		c-8.52,8.73-18.41,12.38-30.58,12.35c-92.01-0.21-184.01-0.11-276.02-0.11c-0.28,0-0.57,0-0.85,0c-7.78-0.02-7.58,0.66-7.57-7.28
		c0.02-14.53,0.01-29.05,0.01-43.58c0-5.13-0.04-10.25,0.01-15.38c0.06-7.11,0.09-7.11,6.81-7.22c1.71-0.03,3.42,0,5.13,0
		c81.18,0,162.36-0.08,243.54,0.16c6.29,0.02,10.72-1.87,15.01-6.11C312,216.19,322.23,206.73,332.6,196.88z"/>
	<path fill="#FFFFFF" d="M2047.63,304.75c-2.42,1.19-4.97,0.61-7.42,0.61c-31.33,0.05-62.67-0.06-94,0.12
		c-5.15,0.03-8.86-1.19-12.63-5.12c-32.16-33.48-64.61-66.69-96.97-99.98c-0.79-0.82-1.58-1.65-2.4-2.44
		c-3.89-3.74-3.98-3.82-7.91,0.25c-20.21,20.87-40.36,41.79-60.54,62.69c-13.06,13.52-26.15,27.01-39.15,40.59
		c-2.5,2.61-5.05,4.01-8.87,4c-33.33-0.15-66.66-0.08-99.98-0.1c-1.05,0-2.25,0.34-3.15-0.87c-0.01-2.23,2.03-3.14,3.32-4.46
		c38.2-39.13,76.47-78.19,114.66-117.34c27.25-27.93,54.38-55.97,81.57-83.96c2.58-2.66,5.11-5.36,7.79-7.91
		c6.96-6.63,11.51-6.8,18.3,0.02c13.86,13.93,27.47,28.11,41.19,42.18c33.22,34.04,66.45,68.07,99.67,102.12
		c21.08,21.61,42.16,43.22,63.2,64.88C2045.59,301.36,2047.62,302.28,2047.63,304.75z"/>
	<path fill="#FFFFFF" d="M901.99,305.39c-17.37,0-33.85,0-50.33,0c-17.09,0-34.18-0.3-51.26,0.16c-6.13,0.16-9.92-2.34-13.87-6.45
		c-31.99-33.23-64.16-66.3-96.24-99.45c-1.57-1.63-2.79-3.59-3.76-4.85c-4.15,0.6-5.43,3.03-7.13,4.79
		c-32.08,33.15-64.19,66.27-96.08,99.61c-4.26,4.45-8.47,6.42-14.77,6.35c-33.03-0.34-66.06-0.16-99.04-0.16
		c-1.24-2.87,1.28-3.65,2.45-4.85c31.16-32.07,62.37-64.07,93.59-96.08c35.99-36.9,72.14-73.63,107.87-110.78
		c10.9-11.34,15.56-8.65,24.26,0.38c30.44,31.57,61.25,62.78,91.89,94.15c35.42,36.26,70.83,72.53,106.22,108.82
		C897.93,299.22,900.46,301.14,901.99,305.39z"/>
	<path fill="#FFFFFF" d="M1539.63,196.75c0,33.02,0,66.03,0,99.05c0,1.99-0.07,3.99-0.02,5.98c0.06,2.49-1.12,3.61-3.57,3.59
		c-2.85-0.03-5.69,0.02-8.54,0.02c-20.21,0-40.42,0.03-60.63-0.01c-7.12-0.01-7.22-0.09-7.23-6.8c-0.03-67.74-0.03-135.48,0-203.22
		c0-6.94,0.1-7.03,7-7.05c21.92-0.04,43.83-0.04,65.75,0c7.16,0.01,7.23,0.09,7.23,7.68
		C1539.64,129.58,1539.63,163.17,1539.63,196.75z"/>
</g>
</svg>
