<svg xmlns="http://www.w3.org/2000/svg" width="202.061" height="21.538" viewBox="0 0 202.061 21.538">
  <path id="Path_690" data-name="Path 690" d="M111.224,30.086a1.32,1.32,0,0,0-.886.492L89.344,51.611h11.034l10.77-10.9,10.819,10.9H133.1l-20.99-21.033A1.321,1.321,0,0,0,111.224,30.086Zm115.585.492a1.043,1.043,0,0,0-1.771,0L204.045,51.611h11.031l10.77-10.9,10.819,10.9h11.13Zm-149.573.935a3.424,3.424,0,0,0-2.872-1.146H45.734v7.182H72.159l3.734,3.439-3.734,3.439H45.734v7.183H74.36a3.424,3.424,0,0,0,2.872-1.146l8.688-8.609a1.022,1.022,0,0,0,0-1.731Zm67.978,0-8.688,8.609a1.022,1.022,0,0,0,0,1.731l8.688,8.609a3.424,3.424,0,0,0,2.872,1.146h28.628v-7.18H150.285l-3.734-3.439,3.734-3.439h26.425V30.367H148.083a3.424,3.424,0,0,0-2.872,1.146Zm43.512,20.1h8.017V30.367h-8.017Z" transform="translate(-45.734 -30.086)" fill="#fff"/>
</svg>
