<svg xmlns="http://www.w3.org/2000/svg" width="26.892" height="26.892" viewBox="0 0 26.892 26.892">
  <path id="insta" d="M19.471,26.892H7.421A7.429,7.429,0,0,1,0,19.471V7.421A7.429,7.429,0,0,1,7.421,0H19.471a7.429,7.429,0,0,1,7.421,7.421V19.471A7.429,7.429,0,0,1,19.471,26.892ZM7.421,2.392A5.041,5.041,0,0,0,2.392,7.421V19.471a5.041,5.041,0,0,0,5.035,5.035H19.478a5.041,5.041,0,0,0,5.035-5.035V7.421a5.041,5.041,0,0,0-5.041-5.028Zm6.025,18.1a7.043,7.043,0,1,1,7.043-7.043,7.043,7.043,0,0,1-7.043,7.043Zm0-11.661a4.625,4.625,0,1,0,4.625,4.625A4.625,4.625,0,0,0,13.446,8.827Zm7.682-1.143a1.914,1.914,0,1,1,1.359-.561,1.914,1.914,0,0,1-1.359.561Z" fill="#fff"/>
</svg>
