<svg id="Group_2" data-name="Group 2" xmlns="http://www.w3.org/2000/svg" xmlns:xlink="http://www.w3.org/1999/xlink" width="23.364" height="21.204" viewBox="0 0 23.364 21.204">
  <defs>
    <clipPath id="clip-path">
      <rect id="Rectangle_1" data-name="Rectangle 1" width="23.364" height="21.204" fill="#fff"/>
    </clipPath>
  </defs>
  <g id="Group_1" data-name="Group 1" clip-path="url(#clip-path)">
    <path id="Path_1" data-name="Path 1" d="M23.285,21.058c-.484-.635-.978-1.271-1.456-1.906-.635-.848-1.271-1.687-1.906-2.53L18,14.081c-.686-.9-1.353-1.8-2.035-2.687-.594-.774-1.172-1.558-1.761-2.336-.046-.06-.044-.084,0-.138.278-.318.551-.635.829-.961q.715-.821,1.429-1.636.847-.972,1.7-1.941l1.218-1.39c.4-.457.8-.92,1.206-1.377q.683-.777,1.371-1.55c-.019-.1-.1-.052-.159-.052H18.534A.3.3,0,0,0,18.4.026c-.289.28-.532.6-.8.9s-.565.635-.847.953c-.384.437-.764.877-1.148,1.317l-.786.889c-.372.426-.742.855-1.112,1.28-.2.237-.405.476-.608.707s-.376.424-.564.635c-.048.054-.068.078-.13-.008-.251-.349-.521-.688-.781-1.028-.484-.635-.974-1.271-1.456-1.906C9.614,3.034,9.069,2.3,8.521,1.576,8.147,1.052,7.751.537,7.359.023H.211C.14.027.059,0,0,.065a.189.189,0,0,0,.021.06C.237.4.453.674.664.953Q1.785,2.413,2.9,3.876L4.79,6.347,6.577,8.685c.724.953,1.445,1.906,2.173,2.849.054.071.035.1-.013.151-.125.132-.249.265-.368.4L7.294,13.333c-.276.318-.558.627-.835.94L5.3,15.6c-.175.2-.353.4-.526.6-.376.43-.748.861-1.125,1.291-.254.294-.518.583-.774.877-.432.5-.861,1-1.3,1.5-.283.318-.581.635-.853.969-.094.114-.237.2-.283.351a.187.187,0,0,0,.118.017H3.9c.04,0,.081.011.114-.019s.087-.091.127-.135c.384-.438.764-.88,1.147-1.318.27-.307.543-.61.81-.916.368-.419.734-.847,1.1-1.271.272-.318.55-.618.821-.928q.583-.664,1.159-1.331c.2-.23.386-.476.6-.691.245-.257.453-.55.713-.786l.862,1.125q.643.834,1.28,1.668c.389.505.77,1.018,1.158,1.525s.794,1.045,1.191,1.563.774,1,1.161,1.5a.359.359,0,0,0,.17.014H23.19a.3.3,0,0,0,.167-.017.975.975,0,0,0-.079-.125m-6.04-2a.219.219,0,0,1-.179-.111q-.953-1.244-1.906-2.492c-.418-.548-.826-1.1-1.244-1.647-.54-.707-1.083-1.4-1.62-2.1-.476-.615-.934-1.231-1.4-1.842-.442-.575-.888-1.144-1.329-1.715q-.618-.805-1.233-1.612L7.03,5.834q-.648-.856-1.3-1.7C5.221,3.468,4.709,2.81,4.2,2.149c-.021-.027-.046-.052-.033-.091-.021-.054.025-.035.041-.035H6.185c.038,0,.081-.008.1.038l.743.994c.408.543.81,1.086,1.22,1.625.449.594.907,1.183,1.356,1.776.548.723,1.086,1.452,1.631,2.174.451.594.909,1.183,1.358,1.776.511.68,1.018,1.363,1.531,2.039.476.635.966,1.271,1.445,1.906s.953,1.28,1.442,1.919q.828,1.094,1.661,2.181c.159.2.3.4.465.615H17.235" transform="translate(0 0)" fill="#fff"/>
  </g>
</svg>
